<?xml version="1.0" encoding="utf-8"?>
<!-- Generator: Adobe Illustrator 23.0.0, SVG Export Plug-In . SVG Version: 6.00 Build 0)  -->
<svg version="1.1" id="Calque_1" xmlns="http://www.w3.org/2000/svg" xmlns:xlink="http://www.w3.org/1999/xlink" x="0px" y="0px"
	 viewBox="0 0 500 500" style="enable-background:new 0 0 500 500;" xml:space="preserve">
<style type="text/css">
	.st0{fill:none;stroke:#FFFFFF;stroke-width:11;stroke-miterlimit:10;}
	.st1{fill:#FFFFFF;}
	.st2{fill:#FFFFFF;stroke:#FFFFFF;stroke-miterlimit:10;}
</style>
<g>
	<line class="st0" x1="198.01" y1="184.7" x2="197.82" y2="296.86"/>
	<line class="st0" x1="311.06" y1="184.7" x2="310.57" y2="364.5"/>
	<line class="st0" x1="199.47" y1="186.31" x2="254.53" y2="203.05"/>
	<line class="st0" x1="252.33" y1="203.79" x2="311.06" y2="186.17"/>
	<line class="st0" x1="313.87" y1="188.21" x2="253.84" y2="162.99"/>
	<line class="st0" x1="195.55" y1="188.21" x2="256.67" y2="163.21"/>
	<polyline class="st1" points="253.79,104.22 253.79,104.22 253.79,104.22 	"/>
	<path class="st1" d="M255.02,447c-0.88,0-1.77-0.22-2.56-0.65c-1.59-0.87-2.56-2.48-2.56-4.23V205c0-2.7,2.3-4.88,5.13-4.88
		c2.83,0,5.13,2.19,5.13,4.88v228.66l167.77-92.29V151.15L255.02,56.04L82.13,151.15v190.22l56.95,31.33
		c2.45,1.35,3.29,4.34,1.88,6.67c-1.41,2.34-4.54,3.14-7,1.79l-59.51-32.74c-1.59-0.87-2.56-2.48-2.56-4.23V148.33
		c0-1.75,0.98-3.36,2.56-4.23l178.02-97.93c1.59-0.87,3.54-0.87,5.13,0L435.6,144.1c1.59,0.87,2.56,2.48,2.56,4.23v195.86
		c0,1.75-0.98,3.36-2.56,4.23l-178.02,97.93C256.79,446.78,255.91,447,255.02,447z"/>
	<g>
		<path class="st1" d="M310.18,367.8c-1.4,0-2.77-0.75-3.5-2.07c-1.08-1.94-0.39-4.4,1.54-5.49l63.64-35.83v-91.18
			c0-2.23,1.79-4.03,4-4.03c2.21,0,4,1.81,4,4.03v93.54c0,1.46-0.78,2.81-2.05,3.52l-65.69,36.98
			C311.51,367.64,310.84,367.8,310.18,367.8z"/>
	</g>
	<g>
		<path class="st2" d="M198.73,299.6c-0.77,0-1.55-0.24-2.24-0.74l-57.98-42.41c-1.12-0.82-1.79-2.2-1.79-3.67v-39.3
			c0-2.44,1.81-4.42,4.04-4.42c2.23,0,4.04,1.98,4.04,4.42v36.94l56.19,41.09c1.85,1.36,2.35,4.1,1.11,6.13
			C201.31,298.92,200.03,299.6,198.73,299.6z"/>
	</g>
	<g>
		<circle class="st1" cx="375.32" cy="241.52" r="12.11"/>
	</g>
	<g>
		<ellipse class="st1" cx="140.62" cy="215.05" rx="12.65" ry="12.24"/>
	</g>
	<g>
		<ellipse class="st1" cx="137.32" cy="377.84" rx="12.65" ry="12.24"/>
	</g>
</g>
</svg>
